<?xml version="1.0" standalone="no"?><!DOCTYPE svg PUBLIC "-//W3C//DTD SVG 1.1//EN" "http://www.w3.org/Graphics/SVG/1.1/DTD/svg11.dtd" ><svg xmlns="http://www.w3.org/2000/svg"><metadata></metadata><defs><font id="navigation" horiz-adv-x="1445"><font-face font-family="navigation" font-weight="400" font-stretch="normal" units-per-em="1024" panose-1="2 0 5 3 0 0 0 0 0 0" ascent="1024" descent="0" x-height="0" bbox="-5 -10 1446 1026" underline-thickness="0" underline-position="10" unicode-range="U+ea01-ea53" /><missing-glyph horiz-adv-x="0"  /><glyph glyph-name="back-o" unicode="&#xea01;" d="M192 523 l288 -288 l43 53 l-203 203 l512 0 l0 64 l-512 0 l203 202 l-43 54 l-288 -288 Z" /><glyph glyph-name="bookmarks-o" unicode="&#xea02;" d="M171 638 l0 0 q0 -76 55 -130 l330 -312 l-88 0 l326 312 q33 31 46 61 q13 30 13 69 q0 35 -15.5 71.5 q-15.5 36.5 -39.5 56.5 q-31 26 -55 35.5 q-24 9.5 -56 9.5 q-70 0 -129 -61 l-45 -45 l-46 44 q-33 33 -64 47.5 q-31 14.5 -65 14.5 q-34 0 -60 -10 q-26 -10 -54 -34 q-22 -19 -37.5 -57.5 q-15.5 -38.5 -15.5 -71.5 l0 0 ZM107 638 q0 43 19 92 q21 55 57 86 q36 31 75 45 q36 14 81 14 q45 0 86 -18 q43 -20 87 -62 q78 80 175 80 q43 0 77.5 -13.5 q34.5 -13.5 74.5 -46.5 q37 -31 59 -84 q19 -47 19 -94 q0 -47 -14 -85 q-19 -47 -64 -91 l-327 -312 l-330 312 q-45 44 -64 104 q-11 36 -11 73 l0 0 Z" /><glyph glyph-name="bookmarks" unicode="&#xea03;" d="M512 73 q-14 0 -26 10 l-356 344 l-15 15 q-11 11 -32.5 37.5 q-21.5 26.5 -38.5 56 q-17 29.5 -30.5 68.5 q-13.5 39 -13.5 79 q0 126 72.5 196.5 q72.5 70.5 200.5 71.5 q35 0 72 -12 q37 -12 68.5 -33.5 q31.5 -21.5 55.5 -39 q24 -17.5 43 -39.5 q20 21 43 39.5 q23 18.5 55.5 39 q32.5 20.5 68.5 33.5 q36 13 72 12 q128 0 200.5 -71.5 q72.5 -71.5 72.5 -197 q0 -125.5 -131 -256.5 l-355 -343 q-11 -10 -26 -10 Z" /><glyph glyph-name="chevron-right-o" unicode="&#xea04;" d="M378 720 l248 -248 l40 40 l-20 20 l-248 248 l-40 -41 l20 -19 ZM419 264 l227 228 l20 20 l-40 40 l-268 -267 l40 -40 l21 19 Z" /><glyph glyph-name="chevron-right" unicode="&#xea05;" d="M633 523 l-424 -425 q-11 -10 -25.5 -10 q-14.5 0 -26.5 10 l-95 96 q-11 11 -11 25 q0 14 11 26 l304 304 l-304 303 q-11 11 -11 25.5 q0 14.5 11 25.5 l95 95 q11 11 26.5 11 q15.5 0 25.5 -11 l424 -424 q10 -11 10 -25 q0 -14 -10 -26 Z" /><glyph glyph-name="chevron-up-o" unicode="&#xea06;" d="M492 606 l247 -248 l41 40 l-248 248 l-20 20 l-40 -40 l20 -20 ZM304 378 l248 248 l-40 40 l-20 -20 l-228 -227 l-19 -21 l40 -40 l19 20 Z" /><glyph glyph-name="chevron-up" unicode="&#xea07;" d="M962 263 l-95 -94 q-11 -10 -26.5 -10 q-15.5 0 -25.5 10 l-303 304 l-303 -304 q-11 -10 -25.5 -10 q-14.5 0 -26.5 10 l-95 94 q-11 11 -11 26.5 q0 15.5 11 25.5 l424 424 q12 11 26 11 q14 0 26 -11 l424 -424 q11 -11 11 -25.5 q0 -14.5 -11 -26.5 Z" /><glyph glyph-name="close" unicode="&#xea08;" d="M15 268 q0 23 17 39 l168 168 l-168 168 q-17 16 -17 39 q0 23 17 39 l78 78 q16 16 38 16 q22 0 38 -16 l168 -168 l169 168 q17 16 39 16 q22 0 38 -16 l78 -78 q16 -16 16 -39 q0 -23 -16 -39 l-168 -168 l168 -168 q16 -16 16 -38.5 q0 -22.5 -16 -39.5 l-78 -77 q-15 -16 -38 -16 q-23 0 -39 16 l-169 167 l-168 -167 q-15 -16 -38 -16 q-23 0 -38 16 l-78 77 q-17 17 -17 39 Z" /><glyph glyph-name="facebook" unicode="&#xea09;" d="M878 238 q0 -68 -48.5 -116 q-48.5 -48 -116.5 -49 l-110 0 l0 348 l117 0 l16 128 l-133 0 l0 82 q0 31 16.5 47 q16.5 16 54.5 16 l76 1 l0 118 q-55 5 -103 5 q-78 0 -125 -46 q-47 -46 -47 -129 l0 -94 l-128 0 l0 -128 l128 0 l0 -348 l-310 0 q-69 0 -117 49 q-48 49 -48 116 l0 548 q0 68 48 116 q48 48 117 49 l548 0 q68 0 116.5 -49 q48.5 -49 48.5 -116 l0 -548 Z" /><glyph glyph-name="gplus" unicode="&#xea0a;" d="M474 328 q0 -43 -33.5 -63.5 q-33.5 -20.5 -80.5 -21.5 q-23 0 -45.5 6 q-22.5 6 -43 15 q-20.5 9 -33 30.5 q-12.5 21.5 -13.5 45.5 q0 26 14.5 45 q14.5 19 38 29.5 q23.5 10.5 47 14.5 q23.5 4 48.5 4 q11 0 17 -1 l13 -9 q13 -8 16 -11 q3 -3 12 -10.5 q9 -7.5 14.5 -12.5 q5.5 -5 11.5 -13 q6 -8 9 -14.5 q3 -6.5 5 -15.5 q2 -9 3 -18 ZM431 639 q0 -34 -18.5 -56.5 q-18.5 -22.5 -52.5 -22.5 q-30 0 -52.5 24.5 q-22.5 24.5 -33 54.5 q-10.5 30 -10.5 61 q0 35 18.5 59.5 q18.5 24.5 52.5 24.5 q31 0 53.5 -25.5 q22.5 -25.5 33.5 -58 q11 -32.5 9 -61.5 ZM492 786 l51 37 l-152 0 q-49 0 -92 -18.5 q-43 -18.5 -72.5 -56 q-29.5 -37.5 -29.5 -86.5 q0 -54 36.5 -89.5 q36.5 -35.5 90.5 -34.5 q13 0 24 2 q-7 -17 -7 -31 q0 -26 23 -54 q-100 -6 -147 -36 q-27 -17 -43 -42.5 q-16 -25.5 -16 -53.5 q0 -25 10 -44.5 q10 -19.5 27.5 -32 q17.5 -12.5 40 -21.5 q22.5 -9 44 -12 q21.5 -3 44.5 -3 q33 0 68 8 q35 8 64.5 26.5 q29.5 18.5 49 47.5 q19.5 29 19.5 66 q0 29 -11 51.5 q-11 22.5 -28.5 39 q-17.5 16.5 -33 26.5 q-15.5 10 -27.5 25.5 q-12 15.5 -12 25 q0 9.5 9 24.5 q9 15 21.5 22.5 q12.5 7.5 25.5 24.5 q13 17 21.5 33.5 q8.5 16.5 8.5 47.5 q0 34 -12.5 56.5 q-12.5 22.5 -42.5 51.5 l48 0 ZM658 530 l73 0 l0 36 l-73 0 l0 74 l-36 0 l0 -74 l-73 0 l0 -36 l73 0 l0 -92 l36 0 l0 92 ZM878 786 l0 -548 q0 -68 -48.5 -116 q-48.5 -48 -116.5 -49 l-548 0 q-69 0 -117 49 q-48 49 -48 116 l0 548 q0 68 48 116 q48 48 117 49 l548 0 q68 0 116.5 -49 q48.5 -49 48.5 -116 Z" /><glyph glyph-name="help-o" unicode="&#xea0b;" d="M753 753 l0 0 l0 0 q-100 100 -241 100 q-141 0 -241 -100 q-100 -100 -100 -241 q0 -141 100 -241 q100 -100 241 -100 q141 0 241 100 q100 100 100 241 q0 141 -100 241 l0 0 ZM798 798 q119 -119 119 -286 q0 -167 -119 -286 q-119 -119 -286 -119 q-167 0 -286 119 q-119 119 -119 286 q0 167 119 286 q119 119 286 119 q167 0 286 -119 l0 0 ZM480 320 l0 65 l64 0 l0 -65 l-64 0 ZM602 688 q37 -38 38 -90 q0 -41 -48 -83 l-13 -11 q-15 -12 -20 -19 q-8 -9 -11.5 -22.5 q-3.5 -13.5 -3.5 -35.5 l-63 0 q-1 32 2 45 q2 9 9 18 l3 7 q15 24 33.5 35.5 q18.5 11.5 33.5 28 q15 16.5 15 37.5 q0 25 -19.5 44 q-19.5 19 -45.5 19 q-26 0 -45 -19 q-19 -19 -20 -44 l-62 0 q-1 52 37 89.5 q38 37.5 90 37.5 q52 0 90 -37 Z" /><glyph glyph-name="help" unicode="&#xea0c;" d="M512 1004 q-134 0 -248 -68 q-111 -65 -176 -176 q-68 -114 -68 -248 q0 -134 68 -248 q65 -111 176 -176 q114 -68 248 -68 q134 0 248 68 q111 65 176 176 q68 115 68 248.5 q0 133.5 -68 247.5 q-65 111 -176 176 q-115 68 -248 68 ZM504 225 l-2 0 q-30 1 -49 21 q-19 20 -18.5 49.5 q0.5 29.5 20 48.5 q19.5 19 48.5 19 l3 -1 q31 0 49.5 -20 q18.5 -20 18 -50 q-0.5 -30 -20 -48.5 q-19.5 -18.5 -49.5 -18.5 ZM673 560 q-11 -15 -56 -51 l-29 -19 q-24 -19 -29 -36 l-1 -2 q-3 -11 -4 -27 l0 -5 l-109 0 l0 10 q1 34 4 46 q3 20 14 33 q16 18 50 43 q17 13 32 23 q12 9 19 19 q17 23 17 41 q0 26 -14.5 46.5 q-14.5 20.5 -54 20.5 q-39.5 0 -56 -25.5 q-16.5 -25.5 -16.5 -54.5 l0 -4 l-113 0 l0 5 q5 104 74 148 q43 28 106 28 q83 0 138 -40 q55 -40 55 -118 q0 -44 -27 -81 Z" /><glyph glyph-name="instagram" unicode="&#xea0d;" d="M778 200 l0 370 l-77 0 q12 -36 12 -75 q0 -72 -37 -132.5 q-37 -60.5 -99.5 -96 q-62.5 -35.5 -137.5 -35.5 q-112 0 -192 77.5 q-80 77.5 -80 186.5 q0 39 11 75 l-80 0 l0 -370 q0 -15 10 -25 q10 -10 25 -10 l610 0 q15 0 25 10 q10 10 10 25 ZM616 505 q0 70 -51.5 120 q-51.5 50 -124.5 50 q-73 0 -125 -50 q-52 -50 -52 -120.5 q0 -70.5 52 -120.5 q52 -50 125 -50 q73 0 124.5 50 q51.5 50 51.5 121 ZM778 710 l0 95 q0 16 -11.5 27.5 q-11.5 11.5 -27.5 11.5 l-100 0 q-16 0 -27.5 -11.5 q-11.5 -11.5 -11.5 -27.5 l0 -95 q0 -16 11.5 -27.5 q11.5 -11.5 27.5 -11.5 l100 0 q16 0 27.5 11.5 q11.5 11.5 11.5 27.5 ZM878 829 l0 -652 q0 -47 -33.5 -80 q-33.5 -33 -79.5 -33 l-652 0 q-47 0 -80 33 q-33 33 -33 80 l0 652 q0 46 33 79.5 q33 33.5 80 33.5 l652 0 q46 0 79.5 -33.5 q33.5 -33.5 33.5 -79.5 Z" /><glyph glyph-name="login-o" unicode="&#xea0e;" d="M299 875 l512 0 l0 -725 l-512 -1 l0 64 l448 0 l0 598 l-448 0 l0 64 ZM107 544 l330 0 l-117 117 l43 43 l192 -192 l-192 -192 l-43 43 l117 117 l-330 0 l0 64 Z" /><glyph glyph-name="logout-o" unicode="&#xea0f;" d="M341 540 l468 0 l-163 163 l36 36 l229 -230 l-229 -230 l-38 37 l167 168 l-470 0 l0 56 ZM569 910 l-455 0 l0 -796 l455 0 l0 57 l-427 0 l29 -29 l0 740 l-29 -29 l427 0 l0 57 Z" /><glyph glyph-name="logout" unicode="&#xea10;" d="M366 201 q0 -2 1 -11.5 q1 -9.5 0 -14.5 l-2 -14 q-1 -9 -5.5 -11.5 q-4.5 -2.5 -12.5 -3.5 l-182 0 q-69 0 -117 48.5 q-48 48.5 -48 116.5 l0 402 q0 68 48 116.5 q48 48.5 117 48.5 l182 0 q8 0 13.5 -5.5 q5.5 -5.5 5.5 -13.5 l1 -11 q1 -9 0 -15 l-2 -14 q-1 -7 -5.5 -11 q-4.5 -4 -12.5 -3 l-182 0 q-38 0 -64.5 -27.5 q-26.5 -27.5 -27.5 -64.5 l0 -402 q0 -38 27.5 -64.5 q27.5 -26.5 64.5 -27.5 l184 0 q6 0 7 -2 q1 -2 4.5 -3 q3.5 -1 4.5 -5 q1 -4 1 -8 ZM896 512 q0 -14 -11 -26 l-311 -311 q-11 -10 -25 -10 q-14 0 -25.5 10 q-11.5 10 -11.5 26 l0 165 l-256 0 q-14 0 -25.5 11 q-11.5 11 -11.5 25 l0 220 q0 15 11.5 25 q11.5 10 25.5 11 l256 0 l0 165 q0 15 11.5 26 q11.5 11 25.5 10 q14 -1 25 -10 l311 -311 q11 -11 11 -26 Z" /><glyph glyph-name="notifications-o" unicode="&#xea11;" d="M65 319 l0 0 l0 64 l0 0 q9 0 25 2 l38 -1 q0 0 0 0 l0 -193 l-63 64 l317 0 l11 -48 q6 -19 22 -39 q16 -20 39 -30 q23 -10 56 -10 q61 0 97 41 q18 22 23 40 l13 46 l318 0 l-65 -64 l0 192 l65 -64 q-94 0 -152 40 q-58 40 -84 125 q-26 85 -20 221 q0 52 -26 96 q-26 44 -70 69.5 q-44 25.5 -96 25.5 q-52 0 -96 -26.5 q-44 -26.5 -69.5 -70 q-25.5 -43.5 -25.5 -92.5 q3 -117 -26 -204.5 q-29 -87.5 -87 -134.5 q-60 -49 -144 -49 l0 0 ZM65 382 q9 -1 31 -1 l32 -1 l0 3 q0 0 0 0 q0 0 0 0 l-63 0 q63 0 107.5 38.5 q44.5 38.5 66.5 110.5 q22 72 18 173 q0 66 34 125 q34 59 91 94 q60 37 130 37 q70 0 128.5 -34.5 q58.5 -34.5 93 -93.5 q34.5 -59 34.5 -128 q-4 -129 18 -202 q20 -67 66 -96 q40 -24 109 -24 l0 -192 l-270 0 l-5 -13 q-6 -16 -16 -32 q-14 -21 -33 -37 q-23 -21 -52 -32 q-34 -14 -75 -14 q-66 0 -112 34 q-33 23 -53 61 q-10 19 -13 33 l-267 0 l0 191 Z" /><glyph glyph-name="notifications" unicode="&#xea12;" d="M521 55 q0 8 -9 8 q-34 0 -58.5 25 q-24.5 25 -23.5 58 q0 10 -9 10 q-9 0 -9 -10 q0 -42 29.5 -71.5 q29.5 -29.5 70.5 -28.5 q9 0 9 9 ZM987 219 q0 -30 -21.5 -51.5 q-21.5 -21.5 -51.5 -21.5 l-256 0 q0 -60 -43 -103 q-43 -43 -103 -43 q-60 0 -103 43 q-43 43 -43 103 l-256 0 q-30 0 -51.5 21.5 q-21.5 21.5 -21.5 51.5 q29 25 52.5 50.5 q23.5 25.5 48 68.5 q24.5 43 43 91 q18.5 48 27.5 116.5 q9 68.5 11 149.5 q0 86 67.5 161 q67.5 75 175.5 91 q-5 10 -5 22 q0 23 16 38.5 q16 15.5 39 16.5 q23 1 39 -16.5 q16 -17.5 16 -38.5 q0 -12 -5 -22 q109 -16 175.5 -91 q66.5 -75 67.5 -161 q0 -80 11 -149.5 q11 -69.5 27.5 -116.5 q16.5 -47 43 -91 q26.5 -44 48 -68.5 q21.5 -24.5 52.5 -50.5 Z" /><glyph glyph-name="official-store-o" unicode="&#xea13;" d="M395 217 l0 0 l0 0 q3 -2 9 -6 l8 -6 q23 -20 34.5 -28 q11.5 -8 25.5 -13 q16 -8 40 -8 q19 0 32 4 q13 4 24 11.5 q11 7.5 33 24.5 q19 14 32 22 q23 14 54 20 l13 2 q16 2 27 8.5 q11 6.5 26 22 q15 15.5 21.5 26.5 q6.5 11 9.5 27 l2 8 l1 9 q5 29 16 47.5 q11 18.5 23 32.5 q20 26 28 38.5 q8 12.5 11 27.5 q3 13 3 26 q0 20 -4.5 31 q-4.5 11 -11 21 q-6.5 10 -22.5 29 q-13 16 -18 23 q-7 10 -12 20 q-5 10 -10 31 l-4 17 q-3 13 -3 11 q-4 20 -10 32.5 q-6 12.5 -18.5 25 q-12.5 12.5 -25 18.5 q-12.5 6 -30.5 10 l-21 4 q-16 4 -26.5 7.5 q-10.5 3.5 -16.5 7.5 q-12 7 -33 24.5 q-21 17.5 -34 25 q-13 7.5 -27.5 11 q-14.5 3.5 -30.5 3.5 q-28 -1 -43.5 -7.5 q-15.5 -6.5 -40.5 -27.5 l-1 0 q-23 -20 -35 -27 q-25 -14 -56 -20 q-6 -1 -10 -1 q-18 -3 -28.5 -8.5 q-10.5 -5.5 -25 -20 q-14.5 -14.5 -20.5 -26.5 q-6 -12 -10 -29 l-2 -8 l-1 -9 q-7 -30 -18 -48 q-7 -12 -24 -34 q-20 -26 -27.5 -39.5 q-7.5 -13.5 -9.5 -31.5 q-1 -5 -1 -16 q0 -6 1 -9 q1 -23 9.5 -39.5 q8.5 -16.5 31.5 -43.5 l2 -3 q14 -17 19 -25 q11 -18 18 -43 l5 -26 q3 -17 9 -28.5 q6 -11.5 18 -24 q12 -12.5 23.5 -18.5 q11.5 -6 29.5 -10 q-17 4 13 -3 q25 -5 33 -8 q13 -4 26 -14 l0 0 ZM362 172 l0 0 q-6 4 -16 7 q-6 2 -20 4 q-28 5 -44 12 q-28 11 -51.5 34.5 q-23.5 23.5 -34.5 50.5 q-6 16 -11 43 q-5 27 -12 38 q-5 8 -18 24 q-25 29 -36 49 q-18 35 -19 76 q-1 41 16 74 q9 19 34 49 q16 19 21 29 q7 12 12 38.5 q5 26.5 11 41.5 q11 26 36 50.5 q25 24.5 50 35.5 q14 6 40 11 q27 5 41 13 q11 6 29 22 q27 22 45 31 q31 15 73.5 16.5 q42.5 1.5 78.5 -16.5 q21 -10 51 -35 q17 -15 25 -19 q9 -6 35 -11 q30 -5 46 -12 q28 -11 50.5 -34.5 q22.5 -23.5 34.5 -50.5 q6 -16 12 -45 q6 -25 11 -36 q5 -11 24 -33 q24 -29 33 -48 q17 -32 17 -69 q-1 -39 -18 -73 q-10 -20 -35 -51 q-15 -19 -20 -28 q-7 -12 -11 -37.5 q-4 -25.5 -11 -40.5 q-11 -26 -37 -52 q-26 -26 -51 -37 q-15 -6 -40 -10 q-14 -3 -21 -5 q-10 -3 -19 -8.5 q-9 -5.5 -27 -19.5 q-31 -25 -51 -35 q-34 -17 -73 -17 q-42 0 -81 22 q-22 12 -54 40 l-15 12 l0 0 ZM382 470 l80 -81 l20 -19 l40 40 l-19 20 l-102 100 l-40 -41 l21 -19 ZM503 389 l161 161 l19 20 l-40 40 l-20 -19 l-161 -161 l-20 -20 l40 -40 l21 19 Z" /><glyph glyph-name="register-o" unicode="&#xea14;" d="M512 427 q-64 0 -117.5 31.5 q-53.5 31.5 -85.5 85.5 q-32 54 -32 117.5 q0 63.5 32 117.5 q32 54 85.5 85.5 q53.5 31.5 117.5 31.5 q64 0 117.5 -31.5 q53.5 -31.5 85.5 -85.5 q32 -54 32 -117.5 q0 -63.5 -32 -117.5 q-32 -54 -85.5 -85.5 q-53.5 -31.5 -117.5 -31.5 l0 0 ZM512 832 q-46 0 -85.5 -23 q-39.5 -23 -62.5 -62 q-23 -39 -23 -85.5 q0 -46.5 23 -85.5 q23 -39 62.5 -62 q39.5 -23 85.5 -23 q46 0 85.5 23 q39.5 23 62.5 62 q23 39 23 85.5 q0 46.5 -23 85.5 q-23 39 -62.5 62 q-39.5 23 -85.5 23 l0 0 ZM211 107 l-62 23 q28 69 83 121.5 q55 52.5 127.5 82 q72.5 29.5 152.5 29.5 q80 0 152.5 -29.5 q72.5 -29.5 127.5 -82 q55 -52.5 83 -121.5 l-62 -23 q-23 57 -68.5 100.5 q-45.5 43.5 -106 67.5 q-60.5 24 -126.5 24 q-66 0 -126.5 -24 q-60.5 -24 -106 -67.5 q-45.5 -43.5 -68.5 -100.5 l0 0 ZM811 469 l-86 0 l0 -64 l86 0 l0 -85 l64 0 l0 85 l85 0 l0 64 l-85 0 l0 86 l-64 0 l0 -86 Z" /><glyph glyph-name="search-o" unicode="&#xea15;" d="M399 334 l0 0 q77 0 143 39 q65 38 103 103 q39 66 39 143.5 q0 77.5 -39 143.5 q-38 65 -103.5 103 q-65.5 38 -142.5 38 q-77 0 -142.5 -38 q-65.5 -38 -103.5 -103 q-39 -66 -39 -143.5 q0 -77.5 39 -143.5 q38 -65 102 -103 q67 -39 144 -39 l0 0 ZM399 278 l0 0 q-93 0 -173 47 q-77 45 -122 122 q-47 79 -47 172 q0 93 47 173 q45 77 122 122 q80 47 172.5 47 q92.5 0 172.5 -47 q77 -45 122 -122 q47 -80 47 -173 q0 -93 -47 -172 q-45 -77 -122 -122 q-80 -47 -172 -47 l0 0 ZM634 344 l249 -249 l40 40 l-20 21 l-228 228 l-20 19 l-40 -40 l19 -19 Z" /><glyph glyph-name="search" unicode="&#xea16;" d="M658 549 q0 105 -75.5 180 q-75.5 75 -180 76 q-104.5 1 -181.5 -76 q-77 -77 -75 -180.5 q2 -103.5 75 -181 q73 -77.5 181.5 -74.5 q108.5 3 180 74.5 q71.5 71.5 75.5 181.5 ZM951 73 q0 -30 -22.5 -51.5 q-22.5 -21.5 -52 -21.5 q-29.5 0 -50.5 22 l-195 195 q-103 -71 -229 -71 q-81 0 -156 32 q-75 32 -128 86 q-53 54 -86 128 q-33 74 -32 157 q1 83 31.5 155.5 q30.5 72.5 86 129 q55.5 56.5 128 86 q72.5 29.5 156.5 31.5 q84 2 156 -31.5 q72 -33.5 129 -86 q57 -52.5 86 -129 q29 -76.5 32 -155.5 q0 -126 -71 -228 l196 -196 q21 -22 21 -52 Z" /><glyph glyph-name="sell-o" unicode="&#xea17;" d="M310 713 q-9 -9 -22.5 -9 q-13.5 0 -22.5 9 q-9 9 -9 23 q0 14 9.5 23 q9.5 9 23 9 q13.5 0 22.5 -10.5 q9 -10.5 9 -21.5 q0 -14 -10 -23 l0 0 ZM245 779 l86 0 l0 -86 l-86 0 l0 86 ZM597 171 l256 256 l-426 426 l-213 0 q-18 0 -30.5 -12.5 q-12.5 -12.5 -12.5 -30.5 l0 -213 l426 -426 ZM107 576 l0 235 q0 29 14 53.5 q14 24.5 38.5 38.5 q24.5 14 53.5 14 l235 0 l491 -490 l-342 -342 l-490 491 Z" /><glyph glyph-name="time-o" unicode="&#xea18;" d="M512 171 l0 0 q93 0 172 47 q77 45 122 122 q47 79 47 172 q0 93 -47 172 q-45 77 -122 122 q-79 47 -172 47 q-93 0 -172 -47 q-77 -45 -122 -122 q-47 -79 -47 -172 q0 -93 47 -172 q45 -77 122 -122 q79 -47 172 -47 l0 0 ZM512 114 l0 0 q-108 0 -201 54 q-90 53 -143 143 q-54 93 -54 201 q0 108 54 201 q53 90 143 143 q93 54 201 54 q108 0 201 -54 q90 -53 143 -143 q54 -93 54 -201 q0 -108 -54 -201 q-53 -90 -143 -143 q-93 -54 -201 -54 l0 0 ZM512 455 l199 0 l0 57 l-228 0 l0 -57 l29 0 ZM483 739 l0 -256 l58 0 l0 285 l-58 0 l0 -29 Z" /><glyph glyph-name="twitter" unicode="&#xea19;" d="M926 791 q-38 -56 -92 -96 l0 -23 q0 -75 -21.5 -148.5 q-21.5 -73.5 -66 -142.5 q-44.5 -69 -105.5 -120 q-61 -51 -147 -84 q-86 -33 -186 -31 q-154 0 -282 83 q19 -3 44 -3 q129 0 229 79 q-60 2 -107.5 37 q-47.5 35 -65.5 91 q19 -2 35 -2 q24 0 49 6 q-65 14 -107 64 q-42 50 -42 117 l0 3 q39 -22 84 -24 q-37 26 -60 65.5 q-23 39.5 -23 89 q0 49.5 26 92.5 q70 -85 168 -136.5 q98 -51.5 213 -56.5 q-5 22 -5 42 q0 77 54 130.5 q54 53.5 130 54.5 q81 0 135 -59 q63 12 117 45 q-20 -65 -81 -102 q53 6 107 29 Z" /><glyph glyph-name="user-o" unicode="&#xea1a;" d="M512 427 q-64 0 -117.5 31.5 q-53.5 31.5 -85.5 85.5 q-32 54 -32 117.5 q0 63.5 32 117.5 q32 54 85.5 85.5 q53.5 31.5 117.5 31.5 q64 0 117.5 -31.5 q53.5 -31.5 85.5 -85.5 q32 -54 32 -117.5 q0 -63.5 -32 -117.5 q-32 -54 -85.5 -85.5 q-53.5 -31.5 -117.5 -31.5 l0 0 ZM512 832 q-46 0 -85.5 -23 q-39.5 -23 -62.5 -62 q-23 -39 -23 -85.5 q0 -46.5 23 -85.5 q23 -39 62.5 -62 q39.5 -23 85.5 -23 q46 0 85.5 23 q39.5 23 62.5 62 q23 39 23 85.5 q0 46.5 -23 85.5 q-23 39 -62.5 62 q-39.5 23 -85.5 23 ZM211 107 l-62 23 q28 69 83 121.5 q55 52.5 127.5 82 q72.5 29.5 152.5 29.5 q80 0 152.5 -29.5 q72.5 -29.5 127.5 -82 q55 -52.5 83 -121.5 l-62 -23 q-23 57 -68.5 100.5 q-45.5 43.5 -106 67.5 q-60.5 24 -126.5 24 q-66 0 -126.5 -24 q-60.5 -24 -106 -67.5 q-45.5 -43.5 -68.5 -100.5 Z" /><glyph glyph-name="user" unicode="&#xea1b;" d="M0 32 q0 9 1 23.5 q1 14.5 11.5 48 q10.5 33.5 27.5 50.5 q17 17 69.5 38.5 q52.5 21.5 118 44 q65.5 22.5 95.5 38.5 q38 20 59.5 58 q21.5 38 20.5 78 q0 27 -32 64 q-34 39 -54.5 104.5 q-20.5 65.5 -20.5 152.5 q0 66 18.5 116 q18.5 50 50 82 q31.5 32 72.5 46 q41 14 87 15 q46 1 87 -15.5 q41 -16.5 73 -46 q32 -29.5 50.5 -81.5 q18.5 -52 18.5 -116 q0 -86 -20.5 -152.5 q-20.5 -66.5 -54 -104.5 q-33.5 -38 -33.5 -64 q0 -40 21.5 -78 q21.5 -38 60.5 -58 q30 -15 95.5 -38.5 q65.5 -23.5 116.5 -44 q51 -20.5 69 -38.5 q18 -18 28.5 -48.5 q10.5 -30.5 11.5 -52.5 l1 -21 l-1049 0 Z" /><glyph glyph-name="youtube" unicode="&#xea1c;" d="M555 304 l0 -121 q0 -38 -22 -38 q-14 0 -26 13 l0 172 q12 12 26 12 q22 0 22 -38 ZM748 303 l0 -26 l-51 0 l0 26 q0 39 25.5 39 q25.5 0 25.5 -39 ZM196 428 l61 0 l0 54 l-178 0 l0 -54 l60 0 l0 -325 l57 0 l0 325 ZM361 103 l50 0 l0 282 l-50 0 l0 -216 q-18 -24 -33 -24 q-10 0 -12 12 q-1 2 -1 20 l0 208 l-50 0 l0 -223 q0 -28 4 -42 q7 -21 34 -21 q27 0 58 35 l0 -31 ZM606 187 l0 113 q0 42 -5 57 q-10 32 -41 32 q-29 0 -53 -31 l0 124 l-51 0 l0 -379 l51 0 l0 27 q26 -31 53 -31 q31 0 41 31 q5 16 5 57 ZM799 193 l0 8 l-52 0 q0 -30 -1 -35 q-4 -21 -23 -21 q-26 0 -26 40 l0 49 l102 0 l0 59 q0 45 -16 66 q-22 30 -60.5 30 q-38.5 0 -60.5 -30 q-16 -21 -16 -66 l0 -99 q0 -45 16 -66 q23 -29 63 -29 q40 0 61 30 q10 16 12 31 q1 5 1 33 ZM451 715 l0 120 q0 39 -24.5 39 q-24.5 0 -24.5 -39 l0 -120 q0 -40 24.5 -40 q24.5 0 24.5 40 ZM862 286 q0 -134 -15 -200 q-8 -34 -33 -57 q-25 -23 -58 -26 q-105 -12 -317 -12 q-212 0 -317 12 q-33 3 -58.5 26 q-25.5 23 -33.5 57 q-15 64 -15 200 q0 133 15 200 q8 33 33.5 56 q25.5 23 58.5 27 q105 12 317 12 q212 0 317 -12 q33 -4 58.5 -27 q25.5 -23 32.5 -56 q15 -64 15 -200 ZM292 1015 l58 0 l-69 -228 l0 -155 l-57 0 l0 155 q-8 42 -35 121 q-21 59 -37 107 l61 0 l40 -150 l39 150 ZM503 825 l0 -100 q0 -47 -16 -68 q-21 -29 -59.5 -29 q-38.5 0 -60.5 29 q-16 22 -16 68 l0 100 q0 45 16 66 q22 30 60.5 30 q38.5 0 59.5 -30 q16 -21 16 -66 ZM695 917 l0 -285 l-52 0 l0 31 q-30 -35 -59 -35 q-26 0 -34 21 q-4 14 -4 43 l0 225 l52 0 l0 -210 q0 -18 0 -20 q2 -12 12 -12 q16 0 33 24 l0 218 l52 0 Z" /><glyph glyph-name="close-o" unicode="&#xea1d;" d="M465 512 l-273 -273 l47 -47 l273 273 l273 -273 l47 47 l-273 273 l273 273 l-47 47 l-273 -273 l-273 273 l-47 -47 l273 -273 Z" /><glyph glyph-name="bookmarks-medium" unicode="&#xea1e;" d="M264 892 q-40 0 -76.5 -15 q-36.5 -15 -65 -43.5 q-28.5 -28.5 -43.5 -65 q-15 -36.5 -15 -76 q0 -39.5 15 -76 q15 -36.5 44 -64.5 l380 -380 l399 397 q38 38 51.5 89.5 q13.5 51.5 0 102.5 q-13.5 51 -51.5 89 q-29 28 -65.5 43.5 q-36.5 15.5 -76.5 15.5 q-40 0 -76.5 -15.5 q-36.5 -15.5 -64.5 -43.5 l-116 -115 l-98 98 q-28 29 -64.5 44 q-36.5 15 -76.5 15 ZM574 896 q37 37 85.5 57 q48.5 20 101 20 q52.5 0 100.5 -20 q48 -20 86 -57 q50 -51 68 -118.5 q18 -67.5 0 -135.5 q-18 -68 -68 -118 l-444 -442 l-426 425 q-37 37 -57 85 q-20 48 -20 100.5 q0 52.5 20 101 q20 48.5 57.5 85.5 q37.5 37 85.5 57 q48 20 101 20 q53 0 101 -20 q48 -20 85 -57 l53 -53 l71 70 Z" /><glyph glyph-name="cart-empty-medium" unicode="&#xea1f;" d="M548 64 q40 0 68 28 q28 28 28 68 q0 40 -28 68 q-28 28 -68 28 q-40 0 -68 -28 q-28 -28 -28 -68 q0 -40 28 -68 q28 -28 68 -28 ZM548 0 q-44 0 -80.5 21.5 q-36.5 21.5 -58 58.5 q-21.5 37 -21.5 80 q0 43 21.5 80 q21.5 37 58 58.5 q36.5 21.5 80 21.5 q43.5 0 80.5 -21.5 q37 -21.5 58.5 -58.5 q21.5 -37 21.5 -80 q0 -43 -21.5 -80 q-21.5 -37 -58.5 -58.5 q-37 -21.5 -80 -21.5 ZM1060 64 q40 0 68 28 q28 28 28 68 q0 40 -28 68 q-28 28 -68 28 q-40 0 -68 -28 q-28 -28 -28 -68 q0 -40 28 -68 q28 -28 68 -28 ZM1060 0 q-44 0 -80.5 21.5 q-36.5 21.5 -58 58.5 q-21.5 37 -21.5 80 q0 43 21.5 80 q21.5 37 58 58.5 q36.5 21.5 80 21.5 q43.5 0 80.5 -21.5 q37 -21.5 58.5 -58.5 q21.5 -37 21.5 -80 q0 -43 -21.5 -80 q-21.5 -37 -58.5 -58.5 q-37 -21.5 -80 -21.5 ZM478 446 l634 0 l126 385 l-910 0 l150 -385 ZM288 895 l1038 0 l-168 -513 l-723 0 l-222 567 l-208 0 l0 64 l252 0 l63 -161 l-32 43 Z" /><glyph glyph-name="phone" unicode="&#xea20;" d="M512 1024 q-104 0 -199 -40 q-92 -39 -163 -110 q-71 -71 -110 -163 q-40 -95 -40 -199 q0 -104 40 -199 q39 -92 110 -163 q71 -71 163 -110 q95 -40 199 -40 q104 0 199 40 q92 39 163 110 q71 71 110 163 q40 95 40 199 q0 104 -40 199 q-39 92 -110 163 q-71 71 -163 110 q-95 40 -199 40 ZM782 277 l-41 -41 q-4 -5 -17 -9 q-10 -3 -12 -3 q-97 -1 -187.5 36 q-90.5 37 -159 106 q-68.5 69 -105.5 159 q-37 90 -36 188 q0 2 3 11 q4 13 9 17 l41 41 q11 12 30 16 q19 4 34 -1 l9 -3 q15 -5 28.5 -19.5 q13.5 -14.5 17.5 -29.5 l21 -76 q4 -15 -1 -34 q-5 -19 -16 -31 l-27 -27 q20 -74 75 -129 q55 -55 129 -75 l28 27 q11 11 30 16 q19 5 34 1 l76 -21 q15 -4 30 -17.5 q15 -13.5 20 -28.5 l2 -9 q5 -15 1 -34 q-4 -19 -16 -30 Z" /><glyph glyph-name="cart-empty-small" unicode="&#xea21;" d="M487 85 q35 0 60 25 q25 25 25 60.5 q0 35.5 -25 60.5 q-25 25 -60 25 q-35 0 -60 -25 q-25 -25 -25 -60.5 q0 -35.5 25 -60.5 q25 -25 60 -25 ZM487 0 q-46 0 -85.5 23 q-39.5 23 -62.5 62 q-23 39 -23 85.5 q0 46.5 23 85.5 q23 39 62.5 62 q39.5 23 85.5 23 q46 0 85.5 -23 q39.5 -23 62.5 -62 q23 -39 23 -85.5 q0 -46.5 -23 -85.5 q-23 -39 -62.5 -62 q-39.5 -23 -85.5 -23 ZM942 85 q35 0 60 25 q25 25 25 60.5 q0 35.5 -25 60.5 q-25 25 -60 25 q-35 0 -60 -25 q-25 -25 -25 -60.5 q0 -35.5 25 -60.5 q25 -25 60 -25 ZM942 0 q-46 0 -85.5 23 q-39.5 23 -62.5 62 q-23 39 -23 85.5 q0 46.5 23 85.5 q23 39 62.5 62 q39.5 23 85.5 23 q46 0 85.5 -23 q39.5 -23 62.5 -62 q23 -39 23 -85.5 q0 -46.5 -23 -85.5 q-23 -39 -62.5 -62 q-39.5 -23 -85.5 -23 ZM435 496 l540 0 l64 267 l-708 0 l104 -267 ZM296 848 l852 0 l-106 -437 l-666 0 l-196 504 l-175 0 l0 85 l233 0 l87 -222 l-29 70 Z" /><glyph glyph-name="cart-full-medium" unicode="&#xea22;" d="M548 64 q40 0 68 28 q28 28 28 68 q0 40 -28 68 q-28 28 -68 28 q-40 0 -68 -28 q-28 -28 -28 -68 q0 -40 28 -68 q28 -28 68 -28 ZM548 0 q-44 0 -80.5 21.5 q-36.5 21.5 -58 58.5 q-21.5 37 -21.5 80 q0 43 21.5 80 q21.5 37 58 58.5 q36.5 21.5 80 21.5 q43.5 0 80.5 -21.5 q37 -21.5 58.5 -58.5 q21.5 -37 21.5 -80 q0 -43 -21.5 -80 q-21.5 -37 -58.5 -58.5 q-37 -21.5 -80 -21.5 ZM1060 64 q40 0 68 28 q28 28 28 68 q0 40 -28 68 q-28 28 -68 28 q-40 0 -68 -28 q-28 -28 -28 -68 q0 -40 28 -68 q28 -28 68 -28 ZM1060 0 q-44 0 -80.5 21.5 q-36.5 21.5 -58 58.5 q-21.5 37 -21.5 80 q0 43 21.5 80 q21.5 37 58 58.5 q36.5 21.5 80 21.5 q43.5 0 80.5 -21.5 q37 -21.5 58.5 -58.5 q21.5 -37 21.5 -80 q0 -43 -21.5 -80 q-21.5 -37 -58.5 -58.5 q-37 -21.5 -80 -21.5 ZM213 949 l221 -567 l724 0 l155 471 l-61 20 l-140 -427 l-634 0 l-221 567 l-252 0 l0 -64 l208 0 Z" /><glyph glyph-name="cart-full-small" unicode="&#xea23;" d="M487 85 q35 0 60 25 q25 25 25 60.5 q0 35.5 -25 60.5 q-25 25 -60 25 q-35 0 -60 -25 q-25 -25 -25 -60.5 q0 -35.5 25 -60.5 q25 -25 60 -25 ZM487 0 q-46 0 -85.5 23 q-39.5 23 -62.5 62 q-23 39 -23 85.5 q0 46.5 23 85.5 q23 39 62.5 62 q39.5 23 85.5 23 q46 0 85.5 -23 q39.5 -23 62.5 -62 q23 -39 23 -85.5 q0 -46.5 -23 -85.5 q-23 -39 -62.5 -62 q-39.5 -23 -85.5 -23 ZM942 85 q35 0 60 25 q25 25 25 60.5 q0 35.5 -25 60.5 q-25 25 -60 25 q-35 0 -60 -25 q-25 -25 -25 -60.5 q0 -35.5 25 -60.5 q25 -25 60 -25 ZM942 0 q-46 0 -85.5 23 q-39.5 23 -62.5 62 q-23 39 -23 85.5 q0 46.5 23 85.5 q23 39 62.5 62 q39.5 23 85.5 23 q46 0 85.5 -23 q39.5 -23 62.5 -62 q23 -39 23 -85.5 q0 -46.5 -23 -85.5 q-23 -39 -62.5 -62 q-39.5 -23 -85.5 -23 ZM376 411 l666 0 l108 439 l-83 20 l-92 -374 l-540 0 l-197 504 l-233 0 l0 -85 l175 0 l196 -504 Z" /><glyph glyph-name="help-medium" unicode="&#xea24;" d="M555 438 l-80 0 l0 21 q0 39 12.5 64 q12.5 25 51 56 q38.5 31 46.5 41 q11 15 11 34 q0 25 -20.5 43.5 q-20.5 18.5 -54.5 18.5 q-34 0 -56.5 -19 q-22.5 -19 -30.5 -58 l-81 10 q4 56 48 95 q44 39 116 39 q76 0 120.5 -39.5 q44.5 -39.5 44.5 -92.5 q0 -29 -16.5 -55 q-16.5 -26 -70.5 -70 q-27 -23 -34 -37.5 q-7 -14.5 -6 -50.5 ZM475 320 l0 88 l88 0 l0 -88 l-88 0 ZM512 64 q122 0 226 61 q101 60 161 161 q61 104 61 226 q0 122 -61 226 q-60 101 -161 161 q-104 61 -226 61 q-122 0 -226 -61 q-101 -60 -161 -161 q-61 -104 -61 -226 q0 -122 61 -226 q60 -101 161 -161 q104 -61 226 -61 ZM512 0 q-104 0 -199 40 q-92 39 -163 110 q-71 71 -110 163 q-40 95 -40 199 q0 104 40 199 q39 92 110 163 q71 71 163 110 q95 40 199 40 q104 0 199 -40 q92 -39 163 -110 q71 -71 110 -163 q40 -95 40 -199 q0 -104 -40 -199 q-39 -92 -110 -163 q-71 -71 -163 -110 q-95 -40 -199 -40 Z" /><glyph glyph-name="notifications-medium" unicode="&#xea25;" d="M320 761 q0 -183 -80 -307 q-64 -100 -176 -158 l0 -66 l320 0 l1 -17 q2 -22 7 -41 q7 -28 20 -50 q15 -26 38 -41 q26 -17 62 -17 q36 0 62 17 q23 15 38 41 q13 22 20 50 q5 19 7 41 l1 17 l320 0 l0 66 q-112 58 -176 158 q-80 124 -80 307 q0 52 -7 81 q-13 52 -50 81 q-47 37 -135 37 q-88 0 -135 -37 q-37 -29 -50 -81 q-7 -29 -7 -81 ZM0 166 l0 169 l35 18 q107 56 163 153 q58 103 58 255 q0 33 2 52 q2 22 7 44 q19 80 80 122 q64 45 167 45 q103 0 167 -45 q61 -42 80 -122 q5 -22 7 -44 q2 -19 2 -52 q0 -152 58 -255 q56 -97 163 -153 l35 -18 l0 -169 l-327 0 q-5 -21 -13 -42 q-23 -58 -65 -90 q-45 -34 -107 -34 q-62 0 -107 34 q-42 32 -65 90 q-9 25 -10 42 l-330 0 Z" /><glyph glyph-name="user-medium" unicode="&#xea26;" d="M68 0 q16 107 78.5 195 q62.5 88 157.5 138 q97 51 208 51 q111 0 208 -51 q95 -50 157.5 -138 q62.5 -88 78.5 -195 l-65 0 q-15 90 -69 163 q-54 73 -134 114 q-83 43 -176 43 q-93 0 -176 -43 q-80 -41 -134 -114 q-54 -73 -69 -163 l-65 0 ZM512 512 q-70 0 -128.5 34.5 q-58.5 34.5 -93 93 q-34.5 58.5 -34.5 128.5 q0 70 34.5 128.5 q34.5 58.5 93 93 q58.5 34.5 128.5 34.5 q70 0 128.5 -34.5 q58.5 -34.5 93 -93 q34.5 -58.5 34.5 -128.5 q0 -70 -34.5 -128.5 q-34.5 -58.5 -93 -93 q-58.5 -34.5 -128.5 -34.5 ZM512 576 q52 0 96 26 q44 26 70 70 q26 44 26 96 q0 52 -26 96 q-26 44 -70 70 q-44 26 -96 26 q-52 0 -96 -26 q-44 -26 -70 -70 q-26 -44 -26 -96 q0 -52 26 -96 q26 -44 70 -70 q44 -26 96 -26 Z" /><glyph glyph-name="search-ml" unicode="&#xea27;" d="M0 640 q0 -104 52 -194 q51 -87 138 -138 q90 -52 194 -52 q104 0 194 52 q87 51 138 138 q52 90 52 194 q0 104 -52 194 q-51 87 -138 138 q-90 52 -194 52 q-104 0 -194 -52 q-87 -51 -138 -138 q-52 -90 -52 -194 l64 0 q0 87 44 161 q42 73 115 115 q74 44 161 44 q87 0 161 -44 q73 -42 115 -115 q44 -74 44 -161 q0 -87 -44 -161 q-42 -73 -115 -115 q-74 -44 -161 -44 q-87 0 -161 44 q-73 42 -115 115 q-44 74 -44 161 l-64 0 ZM616 363 l353 -354 l46 46 l-354 353 l-45 -45 Z" /><glyph glyph-name="user-rounded" unicode="&#xea28;" d="M512 372 q-68 0 -128.5 -26.5 q-60.5 -26.5 -106.5 -74.5 q-46 -48 -69 -111 q-76 66 -118 156 q-43 93 -43 196 q0 126 63 235 q62 105 167 167 q109 63 235 63 q126 0 235 -63 q105 -62 167 -167 q63 -109 63 -235 q0 -103 -43 -196 q-42 -90 -118 -156 q-23 63 -69 111 q-46 48 -106.5 74.5 q-60.5 26.5 -128.5 26.5 ZM512 326 q60 0 114.5 -25 q54.5 -25 93.5 -69 q39 -44 58 -102 q-58 -40 -124 -61 q-69 -22 -142 -22 q-73 0 -141 22 q-67 21 -124 61 q18 58 57 102 q39 44 93.5 69 q54.5 25 114.5 25 ZM0 512 q0 -104 40 -199 q39 -92 110 -163 q71 -71 163 -110 q95 -40 199 -40 q104 0 199 40 q92 39 163 110 q71 71 110 163 q40 95 40 199 q0 104 -40 199 q-39 92 -110 163 q-71 71 -163 110 q-95 40 -199 40 q-104 0 -199 -40 q-92 -39 -163 -110 q-71 -71 -110 -163 q-40 -95 -40 -199 ZM512 512 q-38 0 -70 19 q-32 19 -51 51 q-19 32 -19 69.5 q0 37.5 19 70 q19 32.5 51 51 q32 18.5 70 18.5 q38 0 70 -18.5 q32 -18.5 51 -51 q19 -32.5 19 -70 q0 -37.5 -19 -69.5 q-19 -32 -51 -51 q-32 -19 -70 -19 ZM512 838 q-50 0 -93 -25 q-43 -25 -68 -68 q-25 -43 -25 -93.5 q0 -50.5 25 -93 q25 -42.5 68 -68 q43 -25.5 93 -25.5 q50 0 93 25.5 q43 25.5 68 68 q25 42.5 25 93 q0 50.5 -25 93.5 q-25 43 -68 68 q-43 25 -93 25 Z" /><glyph glyph-name="app" unicode="&#xea29;" d="M160 960 q-40 0 -68 -28 q-28 -28 -28 -68 l0 -704 q0 -40 28 -68 q28 -28 68 -28 l448 0 q40 0 68 28 q28 28 28 68 l0 704 q0 40 -28 68 q-28 28 -68 28 l-448 0 ZM160 1024 l448 0 q43 0 80 -21.5 q37 -21.5 58.5 -58.5 q21.5 -37 21.5 -80 l0 -704 q0 -43 -21.5 -80 q-21.5 -37 -58.5 -58.5 q-37 -21.5 -80 -21.5 l-448 0 q-43 0 -80 21.5 q-37 21.5 -58.5 58.5 q-21.5 37 -21.5 80 l0 704 q0 43 21.5 80 q21.5 37 58.5 58.5 q37 21.5 80 21.5 ZM384 192 q-27 0 -45.5 18.5 q-18.5 18.5 -18.5 45.5 q0 27 18.5 45.5 q18.5 18.5 45.5 18.5 q27 0 45.5 -18.5 q18.5 -18.5 18.5 -45.5 q0 -27 -18.5 -45.5 q-18.5 -18.5 -45.5 -18.5 Z" /><glyph glyph-name="search-plus" unicode="&#xea2a;" d="M402 293 q90 0 166 45 q75 43 118 118 q45 76 45 165.5 q0 89.5 -45 166.5 q-43 74 -118 118 q-76 45 -165.5 45 q-89.5 0 -166.5 -45 q-74 -44 -118 -118 q-45 -77 -45 -166.5 q0 -89.5 45 -165.5 q44 -75 118 -118 q77 -45 166 -45 ZM402 219 q-109 0 -203 55 q-91 54 -144 145 q-55 93 -55 202.5 q0 109.5 55 203.5 q53 91 144 144 q94 55 203.5 55 q109.5 0 202.5 -55 q91 -53 145 -144 q55 -94 55 -203.5 q0 -109.5 -55 -202.5 q-54 -91 -145 -145 q-93 -55 -203 -55 ZM643 329 l52 52 l314 -314 l-52 -52 l-314 314 Z" /><glyph glyph-name="vender-mobile" unicode="&#xea2b;" d="M539 -3 l-526 525 l0 489 l489 0 l525 -526 l-488 -488 ZM539 111 l374 374 l-445 445 l-374 0 l0 -374 l445 -445 ZM323 606 q-39 0 -66.5 28 q-27.5 28 -27.5 67 q0 39 27.5 66.5 q27.5 27.5 66.5 27.5 q39 0 67 -27.5 q28 -27.5 28 -66.5 q0 -39 -28 -67 q-28 -28 -67 -28 Z" /><glyph glyph-name="bookmarks-mobile" unicode="&#xea2c;" d="M569 877 l45 45 q42 42 96.5 65 q54.5 23 114.5 23 q60 0 114.5 -23 q54.5 -23 96.5 -65 q42 -42 65 -96.5 q23 -54.5 23 -114.5 q0 -60 -23 -114.5 q-23 -54.5 -65 -96.5 l-467 -467 l-467 467 q-42 42 -65 97 q-23 55 -23 114.5 q0 59.5 23 114 q23 54.5 65 96.5 l12 13 l1 0 q41 36 92 55.5 q51 19.5 106 19.5 q60 0 114.5 -23 q54.5 -23 96.5 -65 l45 -45 ZM825 924 q-43 0 -82 -16 q-39 -16 -69 -46 l-105 -105 l-105 105 q-30 30 -69.5 46 q-39.5 16 -82 16 q-42.5 0 -81.5 -16 q-39 -16 -69 -46 l-3 -3 q-28 -30 -44 -68 q-16 -38 -15.5 -80.5 q0.5 -42.5 16.5 -81.5 q16 -39 46 -69 l407 -407 l407 407 q30 30 46 69 q16 39 16 82 q0 43 -16 82 q-16 39 -46 69 q-30 30 -69.5 46.5 q-39.5 16.5 -81.5 15.5 Z" /><glyph glyph-name="categories-mobile" unicode="&#xea2d;" d="M371 832 l0 77 l640 0 l0 -77 l-640 0 ZM371 474 l0 76 l640 0 l0 -76 l-640 0 ZM371 115 l0 77 l640 0 l0 -77 l-640 0 ZM115 909 l0 -77 l77 0 l0 77 l-77 0 ZM269 986 l0 -231 l-231 0 l0 231 l231 0 ZM115 550 l0 -76 l77 0 l0 76 l-77 0 ZM269 627 l0 -230 l-231 0 l0 230 l231 0 ZM115 192 l0 -77 l77 0 l0 77 l-77 0 ZM269 269 l0 -231 l-231 0 l0 231 l231 0 Z" /><glyph glyph-name="create-account-mobile" unicode="&#xea2e;" d="M604 222 q-48 40 -106.5 60.5 q-58.5 20.5 -120.5 20.5 q-104 0 -191 -55.5 q-87 -55.5 -132 -148.5 l-36 17 q33 69 88 120.5 q55 51.5 125 79.5 q70 28 146 28 q68 0 132.5 -23 q64.5 -23 117.5 -65 l0 -34 l-23 0 ZM707 182 l122 0 l0 -41 l-122 0 l0 -121 l-40 0 l0 121 l-121 0 l0 41 l121 0 l0 121 l40 0 l0 -121 ZM377 438 q-78 0 -146 39 q-65 39 -104 104 q-39 68 -39 146.5 q0 78.5 39 146.5 q39 65 104 104 q68 39 146.5 39 q78.5 0 145.5 -39 q66 -39 104 -104 q40 -68 40 -146.5 q0 -78.5 -40 -146.5 q-38 -65 -104 -104 q-67 -39 -146 -39 ZM377 478 q68 0 125 33.5 q57 33.5 91 91 q34 57.5 34 125 q0 67.5 -34 125 q-34 57.5 -91 91 q-57 33.5 -124.5 33.5 q-67.5 0 -125 -33.5 q-57.5 -33.5 -91 -91 q-33.5 -57.5 -33.5 -125 q0 -67.5 33.5 -125 q33.5 -57.5 91 -91 q57.5 -33.5 124.5 -33.5 ZM377 546 l0 40 q39 0 71.5 19 q32.5 19 51.5 51.5 q19 32.5 19 71 q0 38.5 -19 71 q-19 32.5 -51.5 51.5 q-32.5 19 -71.5 19 l0 40 q50 0 91.5 -24 q41.5 -24 66 -66 q24.5 -42 24.5 -91.5 q0 -49.5 -24.5 -91 q-24.5 -41.5 -66 -66 q-41.5 -24.5 -91.5 -24.5 Z" /><glyph glyph-name="deals-mobile" unicode="&#xea2f;" d="M40 1024 l85 -102 q22 12 48 14 l289 0 q46 0 80 -30 l6 -6 l370 -370 q22 -22 31 -52 q9 -30 2 -60.5 q-7 -30.5 -27 -54.5 l-288 -287 q-22 -23 -52 -31.5 q-30 -8.5 -60.5 -2 q-30.5 6.5 -54.5 27.5 l-375 375 q-33 32 -36 78 l0 9 l0 281 q0 47 31 82 l-83 100 l34 29 ZM462 869 l-282 0 q-5 0 -10 -1 l46 -55 q16 8 34 8 q33 0 55.5 -23 q22.5 -23 22.5 -55 q0 -32 -22.5 -54.5 q-22.5 -22.5 -55 -22.5 q-32.5 0 -55 22.5 q-22.5 22.5 -22.5 54.5 q0 21 10 39 l-50 61 q-7 -11 -8 -24 l0 -287 q0 -20 12 -35 l4 -5 l369 -369 q16 -15 37 -16 q21 -1 38 12 l4 4 l282 282 q15 15 16 36 q1 21 -12 38 l-4 4 l-370 370 q-16 16 -39 16 ZM517 672 l65 -15 l-87 -390 l-65 15 l87 390 ZM362 542 q22 0 38 -16 q16 -16 16 -38.5 q0 -22.5 -16 -38.5 q-16 -16 -38.5 -16 q-22.5 0 -38 16 q-15.5 16 -15.5 38.5 q0 22.5 15.5 38.5 q15.5 16 38.5 16 ZM651 542 q22 0 38 -16 q16 -16 16 -38.5 q0 -22.5 -16 -38.5 q-16 -16 -38.5 -16 q-22.5 0 -38.5 16 q-16 16 -16 38.5 q0 22.5 16 38.5 q16 16 39 16 ZM250 767 q-10 0 -17 -7 q-7 -7 -7 -17 q0 -10 7 -17 q7 -7 17 -7 q10 0 17.5 7 q7.5 7 7.5 17 q0 10 -7.5 17 q-7.5 7 -17.5 7 Z" /><glyph glyph-name="download-mobile" unicode="&#xea30;" d="M512 405 l256 256 l52 -51 l-345 -345 l-344 345 l52 51 l256 -256 l0 619 l73 0 l0 -619 ZM0 37 l0 73 l951 0 l0 -73 l-951 0 Z" /><glyph glyph-name="help-mobile" unicode="&#xea31;" d="M512 13 q-136 0 -252 68 q-113 66 -179 179 q-68 116 -68 252 q0 136 68 252 q66 113 179 179 q116 68 252 68 q136 0 252 -68 q113 -66 179 -179 q68 -116 68 -252 q0 -136 -68 -252 q-66 -113 -179 -179 q-116 -68 -252 -68 ZM512 90 q113 0 211 56.5 q98 56.5 154.5 154.5 q56.5 98 56.5 211 q0 113 -56.5 211 q-56.5 98 -154.5 154.5 q-98 56.5 -212 56.5 q-114 0 -212 -57 q-96 -56 -152 -152 q-57 -98 -57 -213 q0 -115 57 -213 q56 -96 152 -152 q98 -57 213 -57 ZM465 387 q0 10 0 19 q0 40 11 69 q9 22 27 45 q13 16 46 45 q31 26 39 40.5 q8 14.5 8 30.5 q0 30 -24 53.5 q-24 23.5 -58 23 q-34 -0.5 -56.5 -21.5 q-22.5 -21 -30.5 -69 l-2 -15 l-94 11 l2 16 q9 76 56 118 q47 42 124 42 q80 0 129 -45 q49 -45 49 -109 q0 -37 -17 -68 q-17 -31 -65 -73 q-29 -26 -37 -37 q-8 -11 -12 -25.5 q-4 -14.5 -4 -49.5 l-1 -15 l-90 0 l0 15 ZM461 247 l0 102 l102 0 l0 -102 l-102 0 Z" /><glyph glyph-name="history-mobile" unicode="&#xea32;" d="M512 13 q-136 0 -252 68 q-113 66 -179 179 q-68 116 -68 252 q0 136 68 252 q66 113 179 179 q116 68 252 68 q136 0 252 -68 q113 -66 179 -179 q68 -116 68 -252 q0 -136 -68 -252 q-66 -113 -179 -179 q-116 -68 -252 -68 ZM512 90 q113 0 211 56.5 q98 56.5 154.5 154.5 q56.5 98 56.5 211 q0 113 -56.5 211 q-56.5 98 -154.5 154.5 q-98 56.5 -212 56.5 q-114 0 -212 -57 q-96 -56 -152 -152 q-57 -98 -57 -213 q0 -115 57 -213 q56 -96 152 -152 q98 -57 213 -57 ZM550 550 l167 0 l0 -76 l-243 0 l0 294 l76 0 l0 -218 Z" /><glyph glyph-name="logout-mobile" unicode="&#xea33;" d="M181 96 l-64 0 l0 832 l342 0 l0 -64 l-278 0 l0 -704 l278 0 l0 -64 l-278 0 ZM440 480 l224 -224 l-45 -45 l-302 301 l302 301 l45 -45 l-224 -224 l500 0 l0 -64 l-500 0 Z" /><glyph glyph-name="my-account-mobile" unicode="&#xea34;" d="M163 155 l-20 20 l0 0 q-63 69 -96.5 156.5 q-33.5 87.5 -33.5 180.5 q0 136 68 252 q66 113 179 179 q116 68 252 68 q136 0 252 -68 q113 -66 179 -179 q68 -116 68 -252 q0 -93 -33.5 -180.5 q-33.5 -87.5 -96.5 -156.5 l0 0 l-20 -20 q-70 -68 -160.5 -105 q-90.5 -37 -188.5 -37 q-98 0 -188.5 37 q-90.5 37 -160.5 105 ZM183 247 q55 82 142.5 128.5 q87.5 46.5 186.5 46.5 q99 0 186.5 -46.5 q87.5 -46.5 142.5 -128.5 q69 85 87 192 q18 104 -15 205 q-33 103 -113 177.5 q-80 74.5 -185 100.5 q-103 25 -205 0 q-106 -26 -186 -100.5 q-80 -74.5 -113 -177.5 q-33 -101 -15 -205 q19 -107 87 -192 ZM512 474 q-51 0 -96 25.5 q-45 25.5 -70.5 70 q-25.5 44.5 -25.5 96 q0 51.5 25.5 96 q25.5 44.5 70.5 70.5 q45 26 96.5 26 q51.5 0 95.5 -26 q44 -26 70 -70 q26 -44 26 -96.5 q0 -52.5 -26 -96.5 q-26 -44 -70 -69.5 q-44 -25.5 -96 -25.5 ZM512 550 q31 0 57.5 15.5 q26.5 15.5 42 42.5 q15.5 27 15.5 57.5 q0 30.5 -15.5 57.5 q-15.5 27 -42 42.5 q-26.5 15.5 -57.5 15.5 q-31 0 -57.5 -15.5 q-26.5 -15.5 -42 -42 q-15.5 -26.5 -15.5 -58 q0 -31.5 15.5 -58 q15.5 -26.5 42 -42 q26.5 -15.5 57.5 -15.5 ZM512 90 q76 0 146.5 26 q70.5 26 127.5 75 q-43 72 -116.5 113.5 q-73.5 41.5 -157.5 41.5 q-84 0 -157.5 -41.5 q-73.5 -41.5 -116.5 -113.5 q57 -49 128 -75.5 q71 -26.5 146 -25.5 Z" /><glyph glyph-name="navigation-mobile" unicode="&#xea35;&#xea3a;" d="M0 913 q0 30 15 55.5 q15 25.5 40.5 40.5 q25.5 15 55.5 15 l535 0 q30 0 55.5 -15 q25.5 -15 40.5 -40.5 q15 -25.5 15 -55.5 l0 -67 l267 0 l0 -690 q0 -43 -21 -78.5 q-21 -35.5 -56.5 -56.5 q-35.5 -21 -78.5 -21 l-712 0 q-43 0 -78.5 21 q-35.5 21 -56.5 56.5 q-21 35.5 -21 78.5 l0 757 ZM45 913 q0 -28 19.5 -47.5 q19.5 -19.5 46.5 -19.5 l601 0 l0 67 q0 27 -19.5 46.5 q-19.5 19.5 -46.5 19.5 l-535 0 q-27 0 -46.5 -19.5 q-19.5 -19.5 -19.5 -46.5 ZM979 801 l-868 0 q-37 0 -66 23 l0 -668 q0 -30 14.5 -56 q14.5 -26 40.5 -40.5 q26 -14.5 56 -14.5 l712 0 q30 0 56 14.5 q26 14.5 40.5 40.5 q14.5 26 14.5 56 l0 645 Z" /><glyph glyph-name="notifications-mobile" unicode="&#xea36;" d="M13 166 l0 141 l23 10 q83 34 132.5 108.5 q49.5 74.5 49.5 163.5 l0 128 q0 80 40 148 q39 67 105 106 q69 40 149 40 q80 0 149 -40 q66 -39 105 -106 q40 -68 40 -148 l0 -128 q0 -89 49.5 -163.5 q49.5 -74.5 132.5 -108.5 l23 -10 l0 -141 l-333 0 q-3 -42 -26.5 -77 q-23.5 -35 -60 -55.5 q-36.5 -20.5 -79.5 -20.5 q-43 0 -79.5 20.5 q-36.5 20.5 -60 55.5 q-23.5 35 -26.5 77 l-333 0 ZM730 589 l0 128 q0 58 -29.5 108.5 q-29.5 50.5 -80 79.5 q-50.5 29 -108.5 29 q-58 0 -108.5 -29 q-50.5 -29 -80 -79.5 q-29.5 -50.5 -29.5 -108.5 l0 -128 q0 -106 -55.5 -195.5 q-55.5 -89.5 -148.5 -136.5 l0 -14 l332 0 l0 -64 q0 -37 26.5 -63 q26.5 -26 63.5 -26 q37 0 63.5 26 q26.5 26 26.5 63 l0 64 l332 0 l0 14 q-93 47 -148.5 136.5 q-55.5 89.5 -55.5 195.5 Z" /><glyph glyph-name="points-mobile" unicode="&#xea37;" d="M643 245 q18 0 31 -12.5 q13 -12.5 13 -30.5 l2 -57 l68 0 q18 0 31 -13 q13 -13 13 -32 l0 -55 l-578 0 l0 55 q0 19 13 32 q13 13 31 13 l71 0 l0 55 q0 19 13.5 32 q13.5 13 31.5 13 l107 0 l0 245 l44 0 l0 -245 l109 0 ZM44 890 l138 0 l8 -136 q5 -87 60 -157 q-103 29 -154 101.5 q-51 72.5 -52 191.5 ZM245 979 l534 0 q10 0 16 -6.5 q6 -6.5 6 -16.5 l-11 -199 q-4 -62 -36.5 -113 q-32.5 -51 -85.5 -80.5 q-53 -29.5 -115 -29.5 l-82 0 q-62 0 -115 29.5 q-53 29.5 -85.5 80.5 q-32.5 51 -35.5 113 l-12 199 q-1 9 5.5 16 q6.5 7 16.5 7 ZM980 890 q-1 -119 -52 -191.5 q-51 -72.5 -154 -101.5 q55 70 60 157 l8 136 l138 0 ZM712 539 q160 21 238.5 115.5 q78.5 94.5 73.5 258.5 l-1 22 l-178 0 l1 22 q0 28 -19.5 47.5 q-19.5 19.5 -47.5 19.5 l-538 0 q-28 -2 -46 -22.5 q-18 -20.5 -17 -48.5 l1 -18 l-178 0 l-1 -22 q-5 -164 74 -258.5 q79 -94.5 238 -115.5 q61 -41 133 -48 l0 -202 l-62 0 q-37 0 -63 -26 q-26 -26 -26 -63 l0 -11 l-27 0 q-37 0 -63 -26 q-26 -26 -26 -63 l0 -100 l668 0 l0 100 q0 37 -26 63 q-26 26 -63 26 l-25 0 l0 15 q-2 36 -27.5 60.5 q-25.5 24.5 -61.5 24.5 l-64 0 l0 202 q73 7 133 48 Z" /><glyph glyph-name="purchases-mobile" unicode="&#xea38;" d="M269 755 l0 13 q0 66 32.5 122 q32.5 56 88.5 88.5 q56 32.5 122 32.5 q66 0 122 -32.5 q56 -32.5 88.5 -88.5 q32.5 -56 32.5 -122 l0 -13 l123 0 l114 -742 l-960 0 l114 742 l123 0 ZM346 755 l332 0 l0 13 q0 45 -22.5 83 q-22.5 38 -60.5 60.5 q-38 22.5 -83 22.5 q-45 0 -83 -22.5 q-38 -22.5 -60.5 -60.5 q-22.5 -38 -22.5 -83 l0 -13 ZM812 678 l-600 0 l-90 -588 l780 0 l-90 588 Z" /><glyph glyph-name="stores-mobile" unicode="&#xea39;" d="M371 90 l0 256 l282 0 l0 -256 l153 0 l0 358 l77 0 l0 -435 l-307 0 l0 256 l-128 0 l0 -256 l-307 0 l0 435 l77 0 l0 -358 l153 0 ZM222 533 q-50 0 -92 25 q-42 25 -67 67 q-25 42 -25 92 l0 10 l171 284 l606 0 l171 -284 l0 -10 q0 -59 -34.5 -107 q-34.5 -48 -90 -67 q-55.5 -19 -112 -2 q-56.5 17 -92.5 63 q-26 -33 -64 -52 q-38 -19 -81 -19 q-43 0 -81 19 q-38 19 -64 52 q-26 -33 -64.5 -52 q-38.5 -19 -80.5 -19 ZM772 934 l-520 0 l-136 -227 q4 -42 36 -70 q32 -28 74.5 -26 q42.5 2 72 32.5 q29.5 30.5 30.5 73.5 l76 0 q0 -29 14.5 -53.5 q14.5 -24.5 39 -39 q24.5 -14.5 53.5 -14.5 q29 0 53.5 14.5 q24.5 14.5 39 39 q14.5 24.5 14.5 53.5 l76 0 q1 -43 30.5 -73.5 q29.5 -30.5 72 -32.5 q42.5 -2 74.5 26 q32 28 36 70 l-136 227 Z" /><glyph glyph-name="contact-ms" unicode="&#xea3b;" d="M203 843 q-29 0 -53.5 -15 q-24.5 -15 -39 -40.5 q-14.5 -25.5 -14.5 -55.5 l0 -451 q0 -29 14.5 -54.5 q14.5 -25.5 39 -40.5 q24.5 -15 53.5 -15 l692 0 l0 13 q34 13 54 37 q22 26 22 60 l0 451 q0 30 -14.5 55.5 q-14.5 25.5 -39.5 40.5 q-25 15 -54 15 l-660 0 ZM215 779 l637 0 l-318 -273 l-319 273 ZM161 740 l348 -297 q8 -9 21 -11 l8 1 q12 1 20 10 l347 297 l2 -8 l0 -451 q0 -20 -13 -33 q-13 -13 -31 -13 l-660 0 q-18 0 -30.5 13 q-12.5 13 -12.5 33 l0 451 q0 2 1 5 l0 3 Z" /><glyph glyph-name="cart-ms" unicode="&#xea3c;" d="M89 857 l0 -64 l131 0 l148 -378 l497 0 l119 363 l-643 1 l0 -64 l555 -1 l-77 -235 l-408 0 l-147 378 l-175 0 ZM451 363 q-30 0 -55 -11 q-25 -11 -41 -30 q-32 -36 -32 -87 q0 -51 32 -88 q16 -19 41 -29.5 q25 -10.5 54.5 -10.5 q29.5 0 54.5 10.5 q25 10.5 41 29.5 q33 37 33 88 q0 51 -33 87 q-16 19 -41 30 q-25 11 -54 11 ZM792 363 q-29 0 -54 -11 q-25 -11 -42 -30 q-32 -36 -32 -87 q0 -51 32 -88 q17 -19 42 -29.5 q25 -10.5 54 -10.5 q29 0 54 10.5 q25 10.5 42 29.5 q32 37 32 88 q0 51 -32 87 q-17 19 -42 30 q-25 11 -54 11 ZM451 299 q30 0 47 -19 q17 -19 17 -45.5 q0 -26.5 -17 -45 q-17 -18.5 -47.5 -18.5 q-30.5 0 -47 18.5 q-16.5 18.5 -16.5 45.5 q0 27 16.5 45.5 q16.5 18.5 47.5 18.5 ZM792 299 q31 0 47.5 -19 q16.5 -19 16.5 -45.5 q0 -26.5 -16.5 -45 q-16.5 -18.5 -47.5 -18.5 q-31 0 -47.5 18.5 q-16.5 18.5 -16.5 45.5 q0 27 16.5 45.5 q16.5 18.5 47.5 18.5 Z" /><glyph glyph-name="close-ms" unicode="&#xea3d;" d="M128 986 l-90 -90 l384 -384 l-384 -384 l90 -90 l384 384 l384 -384 l90 90 l-384 384 l384 384 l-90 90 l-384 -384 l-339 339 l-45 45 Z" /><glyph glyph-name="search-ms" unicode="&#xea3e;" d="M662 408 l-46 -46 l237 -236 l45 45 l-214 214 l-22 23 ZM471 853 q-82 0 -152 -41 q-67 -40 -107 -107 q-41 -70 -41 -151.5 q0 -81.5 41 -151.5 q40 -68 107 -108 q70 -41 151.5 -41 q81.5 0 151.5 41 q68 40 108 108 q41 70 41 151.5 q0 81.5 -41 151.5 q-40 67 -108 107 q-70 41 -151 41 ZM471 789 q47 0 90.5 -17.5 q43.5 -17.5 76.5 -51 q33 -33.5 51 -77 q18 -43.5 18 -90.5 q0 -47 -18 -90.5 q-18 -43.5 -51 -76.5 q-33 -33 -76.5 -51 q-43.5 -18 -90.5 -18 q-47 0 -90.5 18 q-43.5 18 -77 51 q-33.5 33 -51 76.5 q-17.5 43.5 -17.5 90.5 q0 47 17.5 90.5 q17.5 43.5 51 77 q33.5 33.5 77 51 q43.5 17.5 90.5 17.5 Z" /><glyph glyph-name="search-spinner-ms" unicode="&#xea3f;" d="M512 1024 l-3 0 l-47 -2 l-51 -8 l-49 -12 l-47 -17 l-45 -22 l-42 -25 l-40 -29 l-36 -33 l-34 -36 l-29 -40 l-26 -42 l-22 -44 l-17 -47 l-14 -52 l-7 -48 l-3 -52 l19 -42 l44 -11 l35 30 l4 17 l3 45 l6 41 l10 39 l14 37 l17 36 l20 34 l24 32 l26 29 l29 26 l32 23 l34 21 l36 17 l37 14 l39 10 l41 6 l42 3 l42 -3 l40 -6 l40 -10 l37 -13 l36 -18 l35 -21 l31 -23 l29 -26 l26 -29 l23 -31 l21 -35 l18 -36 l13 -37 l10 -40 l6 -40 l2 -41 l-3 -51 l-8 -49 l-15 -46 l-20 -45 l-25 -42 l-31 -39 l-34 -35 l-40 -31 l-26 -16 l-27 -15 l-29 -13 l-28 -10 l-31 -8 l-30 -6 l-32 -4 l-32 -1 l-40 -22 l-6 -45 l32 -32 l18 -3 l35 1 l39 4 l38 8 l37 10 l36 12 l36 16 l34 18 l33 21 l51 40 l43 44 l36 45 l34 55 l25 56 l18 59 l11 61 l4 62 l-2 50 l-8 51 l-13 51 l-16 45 l-22 45 l-25 42 l-29 40 l-33 36 l-36 34 l-40 29 l-42 26 l-44 22 l-50 18 l-46 12 l-51 8 l-55 3 Z" /><glyph glyph-name="twitter-ms" unicode="&#xea40;" d="M978 768 q-49 -22 -105 -29 q28 17 49 43 q21 26 31 58 q-53 -32 -116 -45 q-25 28 -60 43 q-35 15 -75 15 q-49 0 -91 -24.5 q-42 -24.5 -66.5 -66.5 q-24.5 -42 -24.5 -92 q0 -21 5 -42 q-112 6 -212 57 q-97 50 -165 135 q-25 -43 -25 -92 q0 -47 22 -87.5 q22 -40.5 59 -64.5 q-42 0 -83 21 l0 -1 q0 -44 19 -82 q19 -38 52.5 -63.5 q33.5 -25.5 75.5 -34.5 q-41 -11 -82 -3 q17 -55 64.5 -90.5 q47.5 -35.5 105.5 -36.5 q-48 -38 -106.5 -58.5 q-58.5 -20.5 -120.5 -19.5 q-22 0 -44 2 q62 -39 132 -60 q73 -22 149 -22 q121 0 223 47 q94 44 164 123 q65 73 100 167 q34 91 34 184 l0 24 q53 38 91 95 Z" /><glyph glyph-name="facebook-ms" unicode="&#xea41;" d="M725 939 l0 -171 l-85 0 q-20 0 -32 -21 q-11 -18 -11 -43 l0 -107 l128 0 l0 -170 l-128 0 l0 -342 l-170 0 l0 342 l-128 0 l0 170 l128 0 l0 171 q0 46 23 85.5 q23 39.5 62 62.5 q39 23 85 23 l128 0 Z" /><glyph glyph-name="instagram-ms" unicode="&#xea42;" d="M710 72 l-388 0 q-66 0 -121.5 32.5 q-55.5 32.5 -88 88 q-32.5 55.5 -32.5 121.5 l0 388 q0 66 32.5 121.5 q32.5 55.5 88 88 q55.5 32.5 121.5 32.5 l388 0 q66 0 121.5 -32.5 q55.5 -32.5 88 -88 q32.5 -55.5 32.5 -121.5 l0 -388 q0 -66 -32.5 -121.5 q-32.5 -55.5 -88 -88 q-55.5 -32.5 -121.5 -32.5 ZM744 710 q0 12 -9 21 q-9 9 -21.5 9 q-12.5 0 -21.5 -8.5 q-9 -8.5 -9 -21 q0 -12.5 9 -21 q9 -8.5 21.5 -8.5 q12.5 0 21.5 8.5 q9 8.5 9 20.5 ZM516 386 q-36 0 -67.5 18.5 q-31.5 18.5 -50.5 49 q-19 30.5 -19 65 q0 34.5 19 65.5 q19 31 50.5 49 q31.5 18 67.5 18 q36 0 67.5 -18 q31.5 -18 50.5 -49 q19 -31 19 -65.5 q0 -34.5 -19 -65 q-19 -30.5 -50.5 -49 q-31.5 -18.5 -67.5 -18.5 ZM516 710 q-54 0 -99.5 -25.5 q-45.5 -25.5 -72 -69.5 q-26.5 -44 -26.5 -96.5 q0 -52.5 26.5 -96.5 q26.5 -44 72 -69.5 q45.5 -25.5 99.5 -25.5 q54 0 99.5 25.5 q45.5 25.5 72 69.5 q26.5 44 26.5 96.5 q0 52.5 -26.5 96.5 q-26.5 44 -72 69.5 q-45.5 25.5 -99.5 25.5 ZM805 321 q0 -34 -25 -58 q-25 -24 -60 -24 l-408 0 q-35 0 -60 24 q-25 24 -25 58 l0 395 q0 34 25 58.5 q25 24.5 60 24.5 l408 0 q35 0 60 -24.5 q25 -24.5 25 -58.5 l0 -395 ZM714 858 l-396 0 q-41 0 -76 -20 q-35 -20 -55.5 -54 q-20.5 -34 -20.5 -74 l0 -383 q0 -40 20.5 -74 q20.5 -34 55.5 -53.5 q35 -19.5 76 -19.5 l396 0 q41 0 76 19.5 q35 19.5 55.5 53.5 q20.5 34 20.5 74 l0 383 q0 40 -20.5 74 q-20.5 34 -55.5 54 q-35 20 -76 20 Z" /><glyph glyph-name="points-discounts-mobile" unicode="&#xea43;" d="M400 549 q-23 -30 -39 -65 q-173 23 -261 127 q-88 104 -88 285 l0 35 l186 0 l0 81 l535 0 l0 -81 l186 0 l0 -35 q0 -142 -54 -237 q-32 16 -67 26 q44 69 51 176 l-116 0 l0 -116 q0 -25 -4 -48 q-36 3 -72 -1 q6 24 6 49 l0 198 l-395 0 l0 -198 q0 -65 38 -117 q38 -52 100 -72 l-6 -7 ZM198 861 l-116 0 q6 -104 48 -172.5 q42 -68.5 121 -103.5 q-26 34 -39.5 75 q-13.5 41 -13.5 85 l0 116 ZM399 105 l-248 0 l0 35 q0 52 23 97.5 q23 45.5 63 77 q40 31.5 90 41.5 q-3 -36 1 -72 q-38 -11 -66 -40.5 q-28 -29.5 -37 -68.5 l133 0 q16 -38 41 -70 ZM698 70 q69 0 128.5 34 q59.5 34 93.5 93.5 q34 59.5 34 128 q0 68.5 -34 128 q-34 59.5 -93.5 94 q-59.5 34.5 -128.5 34.5 q-69 0 -128 -34.5 q-59 -34.5 -93.5 -93.5 q-34.5 -59 -34.5 -128.5 q0 -69.5 34.5 -128 q34.5 -58.5 93.5 -93 q59 -34.5 128 -34.5 ZM698 0 q-87 0 -162.5 43.5 q-75.5 43.5 -119.5 119.5 q-44 76 -44 163 q0 87 44 162.5 q44 75.5 119.5 119.5 q75.5 44 163.5 44 q88 0 164 -45 q73 -43 117 -117 q44 -76 44 -164.5 q0 -88.5 -44 -164.5 q-44 -73 -117 -117 q-76 -44 -165 -44 ZM791 476 l49 -49 l-241 -238 l-49 50 l241 237 ZM615 396 q-20 -1 -34 13 q-14 14 -14 33.5 q0 19.5 14 33.5 q14 14 34 14 q20 0 34 -14 q14 -14 14 -33.5 q0 -19.5 -14 -33 q-14 -13.5 -34 -13.5 ZM775 176 q-20 0 -34 13.5 q-14 13.5 -14 33 q0 19.5 14 33.5 q14 14 33.5 14 q19.5 0 33.5 -13.5 q14 -13.5 14.5 -33.5 q0.5 -20 -14 -33.5 q-14.5 -13.5 -33.5 -13.5 Z" /><glyph glyph-name="mercado-credits-mobile" unicode="&#xea44;" d="M294 422 q0 -6 0 -12 l0 -262 q276 -16 433 23 q93 24 146 85 q50 57 62 144 q5 31 3 51 q-2 17 -7 20 q-7 5 -15 -2.5 q-8 -7.5 -21 -34.5 q-18 -39 -48 -69.5 q-30 -30.5 -69 -49 q-39 -18.5 -123 -25.5 q-30 -21 -66 -21 l-179 0 l0 77 l179 0 q16 0 27 11 q11 11 11 27 q0 16 -11 27 q-11 11 -27 11 l-295 0 ZM262 499 l327 0 q24 0 46.5 -9.5 q22.5 -9.5 38.5 -27.5 q16 -18 24 -41 q8 -23 5 -48 q28 5 42 12 q54 26 81.5 82.5 q27.5 56.5 65.5 75.5 q38 19 80 -7 q29 -19 38 -55.5 q9 -36.5 1 -91.5 q-16 -109 -79 -183 q-69 -80 -186 -109 q-175 -44 -477 -25 q-27 -37 -70.5 -52 q-43.5 -15 -87.5 -1 q-44 14 -71 51.5 q-27 37.5 -27 83.5 l0 256 q0 44 25.5 80.5 q25.5 36.5 67.5 51.5 q42 15 85 3.5 q43 -11.5 71 -46.5 ZM154 474 q-27 0 -45.5 -19 q-18.5 -19 -18.5 -45 l0 -256 q0 -27 18.5 -45.5 q18.5 -18.5 45 -18.5 q26.5 0 45.5 18.5 q19 18.5 19 45.5 l0 256 q0 26 -19 45 q-19 19 -45 19 ZM499 550 q-62 0 -115 31 q-53 31 -84 84 q-31 53 -31 115.5 q0 62.5 31 115.5 q31 53 84 84 q53 31 115.5 31 q62.5 0 115.5 -31 q53 -31 84 -84 q31 -53 31 -115.5 q0 -62.5 -31 -115.5 q-31 -53 -84 -84 q-53 -31 -116 -31 ZM499 627 q41 0 77 20.5 q36 20.5 56.5 56.5 q20.5 36 20.5 77 q0 41 -20.5 76.5 q-20.5 35.5 -56.5 56 q-36 20.5 -77.5 20.5 q-41.5 0 -76.5 -20.5 q-35 -20.5 -55.5 -55.5 q-20.5 -35 -20.5 -77 q0 -42 20.5 -77 q20.5 -35 55.5 -56 q35 -21 77 -21 Z" /><glyph glyph-name="cp-location-mobile" unicode="&#xea45;" d="M414 102 l-39 -42 l-38 42 q-161 180 -240 314 q-80 136 -80 233 q0 97 49 180 q47 82 129 129 q83 49 180.5 49 q97.5 0 180.5 -49 q81 -47 129 -129 q49 -83 49 -180 q0 -97 -80 -233 q-79 -134 -240 -314 ZM631 649 q0 69 -34 128 q-34 59 -93 93.5 q-59 34.5 -128.5 34.5 q-69.5 0 -128.5 -34.5 q-59 -34.5 -93.5 -93.5 q-34.5 -59 -34.5 -127.5 q0 -68.5 64 -177.5 q65 -111 192 -258 q128 147 193 258 q63 109 63 177 ZM375 546 q-42 0 -72 30 q-30 30 -30 72.5 q0 42.5 30 72.5 q30 30 72.5 30 q42.5 0 72.5 -30 q30 -30 30 -72.5 q0 -42.5 -30 -72.5 q-30 -30 -73 -30 Z" /><glyph glyph-name="nav-icon-cp-location-desktop-guest" unicode="&#xea46;" d="M419 37 l-21 -23 l-21 23 q-175 195 -262 341.5 q-87 146.5 -87 247 q0 100.5 51 186.5 q49 84 133 133 q86 51 186.5 51 q100.5 0 186.5 -51 q84 -49 133 -133 q50 -86 50 -186.5 q0 -100.5 -87 -247 q-87 -146.5 -262 -341.5 ZM711 626 q0 85 -43 158 q-41 70 -112 112 q-73 43 -158 43 q-85 0 -158 -43 q-70 -42 -112 -112 q-43 -73 -43 -158 q0 -85 78.5 -217.5 q78.5 -132.5 234.5 -309.5 q156 177 234.5 309.5 q78.5 132.5 78.5 217.5 ZM398 484 q-38 0 -71 19 q-33 19 -52 51.5 q-19 32.5 -19 71 q0 38.5 19 71.5 q19 33 52 52 q33 19 71.5 19 q38.5 0 71 -19 q32.5 -19 51.5 -52 q19 -33 19 -71.5 q0 -38.5 -19 -71 q-19 -32.5 -51.5 -51.5 q-32.5 -19 -71.5 -19 ZM398 540 q36 0 61 25 q25 25 25 60.5 q0 35.5 -25 60.5 q-25 25 -60.5 25 q-35.5 0 -60.5 -25 q-25 -25 -25 -60.5 q0 -35.5 25 -60.5 q25 -25 60 -25 Z" /><glyph glyph-name="nav-icon-cp-location-desktop-logged" unicode="&#xea47;" d="M417 15 l-16 -18 l-17 18 q-362 403 -362 608 q0 103 52 191 q50 86 136 136 q88 52 190.5 52 q102.5 0 191.5 -52 q85 -50 135 -136 q52 -88 52 -191 q0 -205 -362 -608 ZM735 623 q0 91 -46 169 q-44 75 -120 120 q-78 45 -168.5 45 q-90.5 0 -168.5 -45 q-75 -45 -120 -120 q-45 -78 -45 -169 q0 -183 334 -560 q334 377 334 560 ZM401 467 q-43 0 -78.5 21 q-35.5 21 -56.5 57 q-21 36 -21 78.5 q0 42.5 21 78 q21 35.5 56.5 56.5 q35.5 21 78 21 q42.5 0 78.5 -21 q36 -21 57 -56.5 q21 -35.5 21 -78 q0 -42.5 -21 -78.5 q-21 -36 -57 -57 q-36 -21 -78 -21 ZM401 512 q30 0 55.5 15 q25.5 15 40.5 40.5 q15 25.5 15 56 q0 30.5 -15 56 q-15 25.5 -40.5 40.5 q-25.5 15 -56 15 q-30.5 0 -56 -15 q-25.5 -15 -40.5 -40.5 q-15 -25.5 -15 -56 q0 -30.5 15 -56 q15 -25.5 40.5 -40.5 q25.5 -15 56.5 -15 Z" /><glyph glyph-name="supermercado" unicode="&#xea48;" d="M933 549 l67 0 q18 0 29 -14.5 q11 -14.5 6 -31.5 l-123 -463 q-3 -12 -13 -19.5 q-10 -7.5 -22 -7.5 l-682 0 q-12 0 -22 7.5 q-10 7.5 -13 19.5 l-122 463 q-5 17 6 31.5 q11 14.5 29 14.5 l61 0 l0 182 q0 41 28.5 69.5 q28.5 28.5 69.5 28.5 l170 0 q41 0 69.5 -28.5 q28.5 -28.5 28.5 -69.5 l0 -182 l81 0 l0 174 q0 33 20 59 l65 73 q18 21 18 49 l0 47 q0 20 14.5 34.5 q14.5 14.5 34.5 14.5 l47 0 q20 0 34.5 -14.5 q14.5 -14.5 14.5 -34.5 l0 -48 q0 -27 19 -48 l64 -72 q21 -27 21 -62 l0 -172 ZM860 549 l0 172 q0 8 -5 15 l-62 70 q-31 36 -36 82 q-5 -46 -36 -81 l-63 -71 q-4 -6 -4 -13 l0 -174 l206 0 ZM933 475 l0 0 l-812 0 l102 -389 l626 0 l103 389 l-19 0 ZM500 405 l73 0 l0 -233 l-73 0 l0 233 ZM720 412 l72 -15 l-49 -232 l-72 15 l49 232 ZM281 397 l72 15 l49 -232 l-72 -15 l-49 232 ZM207 561 l220 0 l0 170 q0 11 -7.5 18 q-7.5 7 -17.5 7 l-170 0 q-10 0 -17.5 -7 q-7.5 -7 -7.5 -18 l0 -170 Z" /><glyph glyph-name="youtube-ms" unicode="&#xea49;" d="M1384 928 q-19 35 -41 52.5 q-22 17.5 -54 25.5 q-26 7 -73 10 q-122 8 -493 8 q-371 0 -493 -8 q-47 -3 -73 -10 q-32 -8 -54 -25.5 q-22 -17.5 -42 -52.5 q-31 -53 -46 -147 q-15 -98 -15 -254 l0 0 q0 -155 15 -254 q15 -94 46 -147 q20 -34 42 -52 q22 -18 53 -26 q27 -7 74 -10 q62 -4 208 -6 q136 -2 284 -2 q148 0 286 2 q145 2 208 6 q47 3 73 10 q32 8 54 26 q22 18 41 52 q31 53 46 147 q16 98 16 254 l0 0 q0 156 -16 254 q-15 94 -46 147 ZM542 256 l0 542 l452 -271 l-452 -271 Z" /><glyph glyph-name="home" unicode="&#xea50;" d="M320 90 l0 256 l282 0 l0 -256 l204 0 l0 509 l-345 300 l-346 -300 l0 -509 l205 0 ZM397 269 l0 -256 l-359 0 l0 621 l423 367 l422 -367 l0 -621 l-358 0 l0 256 l-128 0 Z" /><glyph glyph-name="quotations-mobile" unicode="&#xea51;" d="M51 1024 l819 0 l0 -1024 l-819 0 l0 1024 ZM128 947 l0 -870 l666 0 l0 870 l-666 0 ZM256 730 l0 76 l384 0 l0 -76 l-384 0 ZM256 576 l0 77 l282 0 l0 -77 l-282 0 ZM256 422 l0 77 l205 0 l0 -77 l-205 0 Z" /><glyph glyph-name="pi-logout-mobile" unicode="&#xea52;" d="M414 474 l226 -223 l-47 -46 l-311 307 l311 307 l47 -46 l-226 -223 l456 0 l0 -76 l-456 0 ZM461 1024 l0 -77 l-333 0 l0 -870 l333 0 l0 -77 l-410 0 l0 1024 l410 0 Z" /><glyph glyph-name="map-search-mobile" unicode="&#xea53;" d="M461 538 q38 0 70.5 18.5 q32.5 18.5 51.5 51 q19 32.5 19 71 q0 38.5 -19 70.5 q-19 32 -51.5 51 q-32.5 19 -70.5 19 q-38 0 -70.5 -19 q-32.5 -19 -51.5 -51 q-19 -32 -19 -70.5 q0 -38.5 19 -71 q19 -32.5 51.5 -51 q32.5 -18.5 70.5 -18.5 ZM461 614 q-17 0 -32 9 q-15 9 -23.5 23.5 q-8.5 14.5 -8.5 32 q0 17.5 8.5 32 q8.5 14.5 23.5 23 q15 8.5 32 8.5 q26 0 45 -18.5 q19 -18.5 19 -45 q0 -26.5 -19 -45.5 q-19 -19 -45 -19 ZM596 174 l23 28 l101 114 q50 58 68 84 q44 66 63 120 q19 54 19 114 q0 106 -56 197 q-54 88 -147 140 q-95 53 -206 53 q-111 0 -207 -53 q-92 -52 -147 -140 q-56 -91 -56 -197 q0 -60 19 -113.5 q19 -53.5 64 -120.5 q18 -27 68 -84 l123 -141 q100 -116 136 -175 q36 59 135 174 ZM383 225 q0 0 -1 1 l-122 140 q-48 55 -62 77 q-39 58 -54.5 100.5 q-15.5 42.5 -15.5 90.5 q0 85 45 157 q45 71 120 113 q77 43 167.5 43 q90.5 0 168.5 -43 q75 -42 119 -113 q46 -72 46 -157 q0 -48 -16 -91 q-16 -43 -54 -100 q-15 -22 -62 -76 l-124 -143 q-47 -54 -77 -92 q-32 40 -78 93 Z" /></font>
</defs>
</svg>
